/* XPM */
static char *e6f4eac35e7e48a285973125340bf0e1[] = {
/* columns rows colors chars-per-pixel */
"64 62 256 2 ",
"   c black",
".  c #0000A8",
"X  c #00A800",
"o  c #00A8A8",
"O  c #A80000",
"+  c #A800A8",
"@  c #A85400",
"#  c gray66",
"$  c gray33",
"%  c #5454FC",
"&  c #54FC54",
"*  c #54FCFC",
"=  c #FC5454",
"-  c #FC54FC",
";  c #FCFC54",
":  c gray99",
">  c #ECECEC",
",  c gainsboro",
"<  c #D0D0D0",
"1  c #C0C0C0",
"2  c #B4B4B4",
"3  c gray66",
"4  c #989898",
"5  c gray55",
"6  c #7C7C7C",
"7  c gray44",
"8  c #646464",
"9  c gray33",
"0  c #484848",
"q  c gray22",
"w  c #2C2C2C",
"e  c #202020",
"r  c #FC0000",
"t  c #EC0000",
"y  c #E00000",
"u  c #D40000",
"i  c #C80000",
"p  c #BC0000",
"a  c #B00000",
"s  c #A40000",
"d  c #980000",
"f  c #880000",
"g  c #7C0000",
"h  c #700000",
"j  c #640000",
"k  c #580000",
"l  c #4C0000",
"z  c #400000",
"x  c #FCD8D8",
"c  c #FCB8B8",
"v  c #FC9C9C",
"b  c #FC7C7C",
"n  c #FC5C5C",
"m  c #FC4040",
"M  c #FC2020",
"N  c #FC0000",
"B  c #FCA85C",
"V  c #FC9840",
"C  c #FC8820",
"Z  c #FC7800",
"A  c #E46C00",
"S  c #CC6000",
"D  c #B45400",
"F  c #9C4C00",
"G  c #FCFCD8",
"H  c #FCFCB8",
"J  c #FCFC9C",
"K  c #FCFC7C",
"L  c #FCF85C",
"P  c #FCF440",
"I  c #FCF420",
"U  c #FCF400",
"Y  c #E4D800",
"T  c #CCC400",
"R  c #B4AC00",
"E  c #9C9C00",
"W  c #848400",
"Q  c #706C00",
"!  c #585400",
"~  c #404000",
"^  c #D0FC5C",
"/  c #C4FC40",
"(  c #B4FC20",
")  c #A0FC00",
"_  c #90E400",
"`  c #80CC00",
"'  c #74B400",
"]  c #609C00",
"[  c #D8FCD8",
"{  c #BCFCB8",
"}  c #9CFC9C",
"|  c #80FC7C",
" . c #60FC5C",
".. c #40FC40",
"X. c #20FC20",
"o. c #00FC00",
"O. c #00FC00",
"+. c #00EC00",
"@. c #00E000",
"#. c #00D400",
"$. c #04C800",
"%. c #04BC00",
"&. c #04B000",
"*. c #04A400",
"=. c #049800",
"-. c #048800",
";. c #047C00",
":. c #047000",
">. c #046400",
",. c #045800",
"<. c #044C00",
"1. c #044000",
"2. c #D8FCFC",
"3. c #B8FCFC",
"4. c #9CFCFC",
"5. c #7CFCF8",
"6. c #5CFCFC",
"7. c #40FCFC",
"8. c #20FCFC",
"9. c #00FCFC",
"0. c #00E4E4",
"q. c #00CCCC",
"w. c #00B4B4",
"e. c #009C9C",
"r. c #008484",
"t. c #007070",
"y. c #005858",
"u. c #004040",
"i. c #5CBCFC",
"p. c #40B0FC",
"a. c #20A8FC",
"s. c #009CFC",
"d. c #008CE4",
"f. c #007CCC",
"g. c #006CB4",
"h. c #005C9C",
"j. c #D8D8FC",
"k. c #B8BCFC",
"l. c #9C9CFC",
"z. c #7C80FC",
"x. c #5C60FC",
"c. c #4040FC",
"v. c #2024FC",
"b. c #0004FC",
"n. c #0000FC",
"m. c #0000EC",
"M. c #0000E0",
"N. c #0000D4",
"B. c #0000C8",
"V. c #0000BC",
"C. c #0000B0",
"Z. c #0000A4",
"A. c #000098",
"S. c #000088",
"D. c #00007C",
"F. c #000070",
"G. c #000064",
"H. c #000058",
"J. c #00004C",
"K. c #000040",
"L. c #282828",
"P. c #FCE034",
"I. c #FCD424",
"U. c #FCCC18",
"Y. c #FCC008",
"T. c #FCB400",
"R. c #B420FC",
"E. c #A800FC",
"W. c #9800E4",
"Q. c #8000CC",
"!. c #7400B4",
"~. c #60009C",
"^. c #500084",
"/. c #440070",
"(. c #340058",
"). c #280040",
"_. c #FCD8FC",
"`. c #FCB8FC",
"'. c #FC9CFC",
"]. c #FC7CFC",
"[. c #FC5CFC",
"{. c #FC40FC",
"}. c #FC20FC",
"|. c #FC00FC",
" X c #E000E4",
".X c #C800CC",
"XX c #B400B4",
"oX c #9C009C",
"OX c #840084",
"+X c #6C0070",
"@X c #580058",
"#X c #400040",
"$X c #FCE8DC",
"%X c #FCE0D0",
"&X c #FCD8C4",
"*X c #FCD4BC",
"=X c #FCCCB0",
"-X c #FCC4A4",
";X c #FCBC9C",
":X c #FCB890",
">X c #FCB080",
",X c #FCA470",
"<X c #FC9C60",
"1X c #F0945C",
"2X c #E88C58",
"3X c #DC8854",
"4X c #D08050",
"5X c #C87C4C",
"6X c #BC7848",
"7X c #B47044",
"8X c #A86840",
"9X c #A0643C",
"0X c #9C6038",
"qX c #905C34",
"wX c #885830",
"eX c #80502C",
"rX c #744C28",
"tX c #6C4824",
"yX c #5C4020",
"uX c #543C1C",
"iX c #483818",
"pX c #403018",
"aX c #382C14",
"sX c #28200C",
"dX c #600064",
"fX c #006464",
"gX c #006060",
"hX c #00001C",
"jX c #00002C",
"kX c #302410",
"lX c #480048",
"zX c #500050",
"xX c #000034",
"cX c gray11",
"vX c #4C4C4C",
"bX c gray36",
"nX c gray25",
"mX c gray19",
"MX c #343434",
"NX c #D8F4F4",
"BX c #B8E8E8",
"VX c #9CDCDC",
"CX c #74C8C8",
"ZX c #48C0C0",
"AX c #20B4B4",
"SX c #20B0B0",
"DX c #00A4A4",
"FX c #009898",
"GX c #008C8C",
"HX c #008484",
"JX c #007C7C",
"KX c #007878",
"LX c #007474",
"PX c #007070",
"IX c #006C6C",
"UX c #980088",
/* pixels */
"$ $ $ $ $ $ $ $ $ $ $ $ $ $ $ $ $ $ $ e e e e e $ $ $ $ 0 0 0 0 0 0 0 0 $ $ $ $ $ $ $ $ $ $ $ $ $ $ $ $ $ $ $ $ $ $ $ $ $ $ $ $ ",
"$ h.V.V.V.V.V.V.V.V.V.V.V.V.V.V.V.V.C.. Z.D.J.e $ (.A.. C.V.V.V.V.V.V.C.A.D.H.q $ $ D.Z.V.V.V.C.Z.A.A.S.D.F.0 0 0 0 0 0 0 0 0 $ ",
"$ V.M.N.B.B.B.B.B.B.B.B.B.B.B.B.B.B.B.B.. S.J.e $ A.B.B.B.B.B.B.B.B.B.B.V.A.G.q 0 $ Z.B.N.N.B.B.B.B.B.B.B.B.V.V.V.V.V.C.C.. Z.A.",
"$ V.N.B.. . . . C.C.. . . . . . . . . . A.G.J.e $ Z.B.V.. . . . C.. . C.Z.S.G.q 0 $ V.N.B.C.. . . V.B.B.B.B.B.N.N.B.B.B.B.B.B.B.",
"$ C.B.C.Z.Z.A.A.Z.Z.Z.Z.Z.Z.A.A.A.A.A.A.S.G.J.e $ Z.V.. A.Z.Z.Z.Z.Z.Z.Z.A.F.J.q 0 $ V.N.C.A.A.A.A.A.Z.. . Z.. . . . . . . . . . ",
"$ . V.. Z.Z.A.A.A.A.A.A.A.A.A.A.A.A.A.A.S.F.J.e $ Z.V.Z.A.Z.A.A.A.A.A.A.A.G.J.q 0 $ V.N.. A.A.A.A.A.A.A.A.A.A.A.A.A.A.A.A.A.A.A.",
"$ A.C.Z.Z.Z.A.A.A.A.A.A.A.A.S.A.A.A.A.A.S.D.J.e $ Z.C.Z.Z.Z.A.A.A.A.A.A.S.G.J.q 0 $ V.B.. A.A.A.A.A.A.A.A.A.A.A.A.Z.Z.A.A.A.A.A.",
"$ A.. Z.A.A.A.A.A.A.A.A.A.A.A.A.A.A.A.A.A.D.J.e $ Z.C.Z.Z.A.A.S.S.S.A.A.S.G.J.q 0 $ V.B.Z.A.A.A.A.A.A.A.S.S.A.Z.Z.Z.Z.Z.A.A.A.A.",
"$ S.. Z.A.A.A.A.A.A.A.A.A.A.A.A.A.A.A.A.A.S.J.e $ Z.V.Z.A.A.A.S.S.S.A.A.S.G.J.q 0 $ V.B.Z.A.A.A.A.A.A.S.S.A.A.A.A.Z.A.A.A.A.A.A.",
"e F.. Z.A.A.Z.A.A.A.A.A.A.A.A.A.A.A.A.A.A.S.H.e $ Z.C.Z.A.A.A.A.A.A.A.S.S.G.J.q 0 $ V.B.Z.A.A.A.A.A.A.A.A.A.A.A.A.A.S.S.S.S.S.S.",
"e G.Z.A.A.A.A.A.A.A.Z.A.A.A.A.A.A.A.A.A.A.S.H.e $ Z.C.Z.A.A.A.A.A.A.A.A.S.G.J.q 0 $ V.B.. A.A.A.S.S.S.S.S.S.S.S.D.F.F.G.G.G.G.H.",
"e G.S.S.S.S.S.S.S.A.A.A.A.A.A.A.A.A.A.A.A.S.J.e $ Z.V.Z.A.A.A.A.A.A.A.A.S.G.J.L.0 $ V.B.Z.S.S.D.G.G.G.G.G.G.G.H.H.J.J.J.J.K.K.xX",
"q J.G.H.H.G.G.G.G.F.D.S.S.A.A.S.S.S.S.S.S.F.J.e 0 Z.C.Z.A.A.A.A.A.A.A.A.S.G.J.L.0 $ C.C.S.G.H.J.J.J.J.J.J.J.K.K.xXxXjXe e e e e ",
"q e e e e xXK.K.J.J.J.H.H.G.H.H.H.H.H.H.H.J.xXe 0 A.C.Z.A.A.A.A.A.A.A.A.S.G.J.L.0 $ S.S.H.J.K.xXjXe e e e e e e e e e e e e e e ",
"H.J.e e e e e e jXjXjXjXjXjXjXjXjXjXjXjXjXjXe e 0 Z.V.Z.A.A.A.A.A.A.A.S.D.H.J.L.0 0 q e e e e e e e e e e e e L.L.q q q q q 0 $ ",
"A.S.D.G.H.J.K.e e e e e e e e e e e e e e e q q 0 Z.C.Z.A.A.A.A.A.A.A.S.F.H.J.L.0 0 $ $ $ $ $ $ $ $ $ $ $ $ $ $ $ $ $ $ F.S.A.Z.",
"B.B.B.C.. A.S.D.F.G.G.G.G.G.G.H.H.J.e e e e q q 0 Z.V.Z.A.A.A.A.A.S.S.S.G.J.K.L.0 $ $ $ $ $ S.A.. C.C.C.. A.F.q $ $ S.A.C.B.B.B.",
"N.N.N.N.N.N.B.B.B.V.V.V.V.V.V.V.V.C.. A.F.J.e q 0 Z.V.. A.A.A.A.A.S.S.S.G.J.K.L.0 $ 0 A.Z.C.C.V.B.B.C.. Z.A.G.q $ S.C.B.B.B.B.V.",
"C.V.B.B.B.N.N.M.N.N.N.N.N.N.N.N.N.B.B.Z.D.J.e q 0 Z.V.. A.A.A.A.A.A.A.S.G.J.K.L.0 $ A.V.V.C.. . . Z.A.A.A.S.H.q $ Z.B.N.B.V.. . ",
"Z.Z.. . . . V.V.V.V.V.B.V.C.C.C.C.C.. A.G.J.e L.0 Z.C.Z.Z.A.A.A.A.A.A.S.G.J.xXL.0 $ C.B.. A.Z.A.A.A.A.A.A.S.H.q $ . N.B.C.Z.Z.Z.",
"A.A.A.A.A.Z.. Z.Z.Z.Z.. Z.Z.Z.A.Z.Z.A.S.G.J.e L.0 Z.V.. Z.A.A.A.A.A.A.S.G.J.xXL.0 $ V.B.Z.A.Z.A.A.A.A.A.A.S.H.q $ C.N.V.Z.A.A.A.",
"A.A.A.A.A.Z.Z.Z.Z.A.A.A.A.A.A.A.A.A.A.S.G.J.e L.0 Z.V.. Z.A.A.A.S.S.A.S.G.J.L.L.0 $ . B.Z.A.A.A.A.A.A.A.A.S.H.e $ C.B.C.A.A.A.A.",
"A.A.A.A.A.Z.Z.A.A.Z.Z.A.A.A.A.A.A.A.A.S.G.J.e e 0 A.V.. A.A.A.A.S.S.S.S.G.J.e L.0 $ A.V.Z.A.A.A.A.A.A.A.A.S.H.e 0 V.B.. A.A.A.A.",
"A.A.A.A.A.A.A.A.A.A.Z.A.A.A.A.A.A.A.A.S.G.J.L.e q A.C.Z.A.A.A.A.A.A.A.S.G.J.e L.0 $ S.C.Z.A.A.A.A.A.A.A.A.S.H.e 0 V.N.. A.A.A.A.",
"S.S.S.S.S.A.A.A.A.A.A.A.A.A.A.A.A.A.A.S.G.J.L.e q A.C.Z.A.A.S.S.A.A.A.S.G.J.e L.0 $ 0 . Z.A.A.A.S.S.S.S.S.D.J.e 0 V.B.Z.A.S.S.S.",
"G.G.G.G.F.D.S.S.S.S.S.S.S.S.S.S.S.S.S.F.H.J.L.e q A.V.. A.A.A.S.A.A.A.S.G.J.e L.0 $ 0 A.A.S.S.D.F.G.H.H.G.H.J.e 0 . . S.G.G.G.G.",
"J.J.J.J.J.J.H.H.H.H.H.H.H.H.H.H.H.H.H.J.J.K.L.e q A.C.Z.A.A.A.A.A.A.A.S.G.J.e L.0 $ 0 G.G.H.H.J.J.K.xXxXxXxXjXe 0 D.F.H.J.J.J.J.",
"e e e e e xXxXxXxXxXxXxXxXxXxXxXxXxXxXxXxXjXL.e q A.C.Z.A.A.A.A.A.A.A.S.G.J.e L.0 $ 0 e e e e e e e e e e e e e e e e e e e e e ",
"e e e e e e e e e e e e e e e e e e e e e e e e q A.C.Z.A.A.A.A.A.A.A.S.G.K.e L.0 $ 0 q q q q q L.L.L.L.q q q q e e e e e e e e ",
"$ $ 0 q q L.L.L.e e e e e e e e e e e e e e e e q A.C.A.A.A.A.A.A.A.S.G.J.K.e L.0 $ $ $ $ $ $ $ $ $ $ $ $ $ $ $ $ $ $ $ $ q $ $ ",
"$ $ $ $ 0 0 0 0 0 0 0 0 0 0 0 0 0 0 0 0 0 e q q $ Z.C.Z.A.A.A.A.S.D.G.J.K.jXe q 0 $ $ D.A.C.V.V.V.V.V.V.V.V.V.V.V.V.C.Z.D.L.q $ ",
"$ $ D.A.. C.V.V.V.V.V.V.V.V.V.V.V.V.V.Z.D.e q $ $ Z.V.Z.A.A.A.S.G.H.J.xXjXe e q $ $ F.Z.B.N.N.B.B.B.B.N.B.B.B.N.N.B.V.A.F.L.L.$ ",
"$ 0 A.B.B.N.N.N.N.N.N.N.N.N.N.N.N.B.B.Z.G.e q $ $ Z.C.A.A.A.S.F.H.J.xXe e e q $ $ $ S.B.N.B.C.. Z.Z.. . Z.Z.. . . . A.D.J.e L.$ ",
"$ 0 . B.B.C.C.C.C.C.. C.C.. . . . . Z.D.J.e q $ $ Z.C.A.A.A.S.G.J.xXe e q $ $ $ $ $ Z.N.B.. A.A.A.A.A.A.A.A.A.A.A.A.S.G.K.e e $ ",
"$ 0 C.B.C.Z.Z.Z.Z.Z.A.Z.A.A.A.A.A.A.S.G.K.e q $ $ Z.V.Z.A.A.S.H.xXe q G.A.C.C.h.$ $ C.N.V.Z.A.A.A.A.A.A.A.A.A.A.A.A.S.H.xXe e $ ",
"$ 0 V.N.. A.A.A.A.A.A.A.A.A.A.A.A.A.S.H.xXe q $ $ Z.V.Z.A.S.D.H.xXe G.. B.B.V.A.$ $ V.B.. A.A.A.A.A.A.A.A.A.A.A.Z.A.S.H.xXe e $ ",
"$ 0 V.B.Z.A.A.A.A.A.A.A.A.A.A.A.A.A.S.H.xXe q $ $ Z.V.Z.A.D.G.J.jXe S.V.C.C.Z.D.$ $ V.B.. A.A.A.A.Z.Z.A.A.A.A.A.A.A.S.G.xXe e $ ",
"$ 0 . . A.A.A.A.A.A.A.A.A.A.A.A.A.A.S.H.xXe q $ $ Z.C.Z.S.F.H.K.e e Z.C.. Z.S.G.$ 0 V.B.. A.A.A.A.Z.Z.Z.A.A.A.A.A.A.A.G.xXe e $ ",
"$ 0 S.S.F.D.S.A.A.A.A.A.A.A.A.A.A.A.D.H.xXe q $ $ Z.C.A.S.G.J.xXe D.V.C.Z.A.D.).$ 0 V.N.. A.A.A.A.A.A.A.Z.Z.Z.Z.A.A.S.G.xXe e $ ",
"$ 0 H.H.J.J.G.S.S.S.S.S.S.S.S.S.S.D.G.J.xXe q $ $ Z.. A.F.H.J.jXe A.C.. Z.A.G.e $ 0 V.N.. Z.A.A.A.A.A.A.Z.Z.Z.Z.Z.A.S.H.xXe e $ ",
"$ 0 q q e e J.H.G.H.H.H.H.G.H.H.H.H.J.K.jXe q $ $ A.Z.D.H.J.xXe e Z.. Z.A.S.H.e $ 0 V.N.C.Z.A.A.Z.A.A.A.A.A.A.A.A.A.S.H.xXe e $ ",
"$ $ $ $ q e e xXxXxXxXxXxXxXxXxXxXxXxXjXe e q $ $ A.S.G.J.xXjXe q A.. Z.A.S.H.e $ 0 V.B.. A.A.A.A.A.A.A.A.A.A.A.A.A.S.H.xXe e $ ",
"$ $ $ $ $ q e e e e e e e e e e e e e e e e q $ $ F.G.K.xXjXe e $ D.S.S.S.D.J.e $ 0 V.B.Z.S.S.S.S.S.S.S.S.S.S.S.S.S.F.H.xXe e $ ",
"$ $ $ $ $ $ q q L.L.L.L.L.L.L.L.L.L.L.L.L.L.q $ q q q L.e e e q $ e J.J.J.J.K.e $ 0 . C.A.F.G.H.H.H.H.H.H.H.H.H.H.H.J.J.xXe e $ ",
"$ $ 0 0 $ $ $ $ $ $ $ $ $ $ $ $ $ $ $ $ $ $ $ q q e e e e q $ $ $ $ e e e e e e $ 0 S.S.G.J.K.xXxXxXxXxXxXxXxXxXxXxXxXxXjXe e $ ",
"$ h.. . C.. . A.S.D.$ $ $ $ $ $ $ $ $ $ 0 0 0 0 0 0 0 0 0 0 0 0 0 0 $ $ q q e e $ q q e e e e e e e e e e e e e e e e e e e q $ ",
"$ . N.M.N.N.N.B.B.B.V.V.. A.S.$ $ $ $ 0 A.C.C.C.C.C.C.C.C.C.C.C.Z.A.S.0 0 0 $ $ $ q q L.e e e e e e e e e e e e e e e e e q q $ ",
"$ C.M.M.B.B.B.B.B.B.B.B.B.V.. S.$ q $ 0 C.N.B.B.B.B.B.B.B.B.B.B.B.V.V.V.. A.S.0 0 q $ $ q L.L.L.L.L.L.L.L.L.L.L.L.L.L.L.q q $ $ ",
"$ C.N.B.. Z.Z.Z.. C.C.. Z.Z.A.D.$ q $ 0 C.B.. . . . . Z.Z.. . . . . V.V.V.C.. A.D.0 0 q $ $ $ $ 0 0 0 0 0 0 $ 0 0 0 0 0 0 0 0 e ",
"$ . B.. A.A.A.A.Z.Z.A.A.A.A.S.G.$ q $ 0 C.B.Z.Z.Z.Z.Z.A.A.A.A.A.A.A.A.Z.. Z.Z.Z.A.D.0 e q $ $ S.A.A.Z.Z.Z.Z.Z.Z.Z.Z.Z.Z.A.S.G.e ",
"$ . B.. A.A.A.A.A.A.A.A.A.A.S.G.$ e $ 0 C.V.Z.A.A.A.A.A.A.A.A.A.A.A.A.A.Z.A.A.A.A.D.J.e q $ S.. B.B.B.B.B.B.B.B.B.B.B.B.V.Z.G.e ",
"$ . B.. Z.Z.A.A.A.A.A.A.A.A.D.H.q e $ 0 V.V.A.A.A.A.A.A.A.A.A.A.A.Z.A.A.A.A.A.A.S.G.J.e q $ A.B.B.V.. . Z.Z.. C.C.. . . . S.H.e ",
"$ . B.C.Z.A.A.A.A.A.A.A.A.S.F.J.q e $ D.V.B.Z.A.A.A.A.A.A.A.A.A.Z.Z.A.Z.Z.Z.A.A.S.G.J.e q $ Z.B.V.Z.A.A.A.A.A.A.A.A.A.A.A.S.H.e ",
"$ . B.. A.A.A.A.A.A.A.A.A.S.F.J.L.e $ S.B.B.Z.A.S.A.A.A.A.S.S.A.A.Z.Z.Z.Z.Z.Z.A.F.H.K.e q $ Z.B.. A.A.A.A.A.A.A.A.A.A.A.A.S.H.e ",
"$ . B.. A.A.A.A.A.A.A.A.A.S.G.J.e L.$ A.B.V.A.A.A.A.A.A.A.S.S.A.A.A.Z.A.A.A.A.S.G.J.xXe 0 $ Z.V.Z.A.A.A.A.A.A.A.A.A.A.A.A.S.J.e ",
"$ . B.. A.A.A.A.A.A.A.A.A.S.G.J.e q $ Z.B.V.A.A.A.A.A.A.A.A.A.A.A.A.A.A.A.A.A.S.G.J.xXe 0 $ A.. A.S.S.S.S.S.S.S.S.S.S.S.S.G.J.e ",
"$ . B.Z.A.A.A.A.A.A.A.A.A.S.G.K.e q 0 C.B.. S.S.S.S.S.S.S.S.S.S.S.S.S.S.S.S.S.D.G.J.xXe $ $ S.S.F.G.G.G.G.G.G.G.G.G.G.G.G.H.K.e ",
"$ . B.. A.A.A.A.A.A.A.A.A.S.H.xXe q 0 Z.Z.S.G.G.G.G.G.G.G.G.G.G.G.G.G.G.G.G.G.G.J.K.e e $ $ G.H.J.J.J.J.J.J.J.J.J.J.J.J.J.K.jXe ",
"$ Z.V.A.S.S.S.S.S.S.A.A.S.G.J.xXe 0 0 D.F.J.J.J.J.J.J.J.J.J.J.J.J.J.J.J.J.J.J.J.K.xXe L.$ q L.e e e e e e e e e e e e e e e e e ",
"$ S.A.D.G.G.G.G.G.G.G.G.G.J.K.jXe $ 0 e e e e e e e e e e e e e e e e e e e e e e e e q $ q q e e e e e e e e e e e e e e e e e ",
"$ $ G.J.J.K.K.K.xXxXxXxXxXxXjXjXe $ 0 e e e e e e e e e e e e e e e e e e e e e e e e q $ $ q q q q q q q q q q q q q q q q q $ ",
"$ e e e e e e e e e e e e e e e e $ $ 0 q L.L.L.L.L.L.L.L.L.L.L.L.L.L.L.L.L.L.L.L.L.q $ $ $ $ $ $ $ $ $ $ $ $ $ $ $ $ $ $ $ $ $ "
};